<?xml version="1.0" encoding="UTF-8" standalone="no"?>
<!-- Created with Inkscape (http://www.inkscape.org/) -->

<svg
   width="202.5424mm"
   height="157.60106mm"
   viewBox="0 0 202.5424 157.60106"
   version="1.1"
   id="svg10957"
   sodipodi:docname="tradeoff_concept.svg"
   inkscape:version="1.2 (1:1.2.1+202207142221+cd75a1ee6d)"
   inkscape:export-filename="tradeoff_concept.png"
   inkscape:export-xdpi="200"
   inkscape:export-ydpi="200"
   xmlns:inkscape="http://www.inkscape.org/namespaces/inkscape"
   xmlns:sodipodi="http://sodipodi.sourceforge.net/DTD/sodipodi-0.dtd"
   xmlns="http://www.w3.org/2000/svg"
   xmlns:svg="http://www.w3.org/2000/svg">
  <sodipodi:namedview
     id="namedview10959"
     pagecolor="#ffffff"
     bordercolor="#000000"
     borderopacity="0.25"
     inkscape:showpageshadow="2"
     inkscape:pageopacity="0.0"
     inkscape:pagecheckerboard="0"
     inkscape:deskcolor="#d1d1d1"
     inkscape:document-units="mm"
     showgrid="false"
     inkscape:zoom="1.0263468"
     inkscape:cx="430.65365"
     inkscape:cy="335.16936"
     inkscape:window-width="1920"
     inkscape:window-height="1011"
     inkscape:window-x="0"
     inkscape:window-y="32"
     inkscape:window-maximized="0"
     inkscape:current-layer="layer1" />
  <defs
     id="defs10954">
    <clipPath
       id="clipPath970">
      <path
         d="m 240,0 h 6 v 44.035156 h -6 z m 0,0"
         id="path7481" />
    </clipPath>
    <clipPath
       id="clipPath2748">
      <path
         d="m 254,0 h 5 v 44.035156 h -5 z m 0,0"
         id="path8274" />
    </clipPath>
    <clipPath
       id="clipPath6535">
      <path
         d="m 240,0 h 6 v 44.035156 h -6 z m 0,0"
         id="path7118" />
    </clipPath>
    <clipPath
       id="clipPath4575">
      <path
         d="m 254,0 h 5 v 44.035156 h -5 z m 0,0"
         id="path6194" />
    </clipPath>
    <clipPath
       id="clipPath7160">
      <path
         d="m 234,0 h 6 v 44.035156 h -6 z m 0,0"
         id="path8729" />
    </clipPath>
    <clipPath
       id="clipPath9988">
      <path
         d="m 260,0 h 6 v 44.035156 h -6 z m 0,0"
         id="path2536" />
    </clipPath>
  </defs>
  <g
     inkscape:label="Layer 1"
     inkscape:groupmode="layer"
     id="layer1"
     transform="translate(-25.404375,-35.355659)">
    <rect
       style="fill:#ffffff;fill-opacity:1;stroke:none;stroke-width:1.13518"
       id="rect412"
       width="202.5424"
       height="157.60106"
       x="25.404375"
       y="35.355659" />
    <text
       xml:space="preserve"
       style="font-size:8.52193px;line-height:1.25;font-family:Urbanist;-inkscape-font-specification:Urbanist;letter-spacing:0px;stroke-width:0.29052"
       x="37.805176"
       y="54.194218"
       id="text2716"><tspan
         sodipodi:role="line"
         id="tspan2714"
         style="font-style:normal;font-variant:normal;font-weight:500;font-stretch:normal;font-size:8.52193px;font-family:Roboto;-inkscape-font-specification:'Roboto Medium';stroke-width:0.29052"
         x="37.805176"
         y="54.194218">Error trade-off across targets</tspan></text>
    <path
       style="fill:none;stroke:#646464;stroke-width:0.620794;stroke-linecap:butt;stroke-linejoin:miter;stroke-miterlimit:4;stroke-dasharray:none;stroke-opacity:1"
       d="M 66.904595,82.621781 V 169.52065 H 167.26876"
       id="path859" />
    <text
       xml:space="preserve"
       style="font-style:normal;font-variant:normal;font-weight:normal;font-stretch:normal;font-size:5.90727px;line-height:1.25;font-family:'Roboto Condensed';-inkscape-font-specification:'Roboto Condensed, ';letter-spacing:0px;stroke-width:0.23445"
       x="99.159424"
       y="178.64851"
       id="text1691"><tspan
         sodipodi:role="line"
         style="font-style:normal;font-variant:normal;font-weight:normal;font-stretch:normal;font-size:5.90727px;font-family:'Roboto Condensed';-inkscape-font-specification:'Roboto Condensed, ';stroke-width:0.23445"
         x="99.159424"
         y="178.64851"
         id="tspan17397">Target Two Error</tspan></text>
    <text
       xml:space="preserve"
       style="font-style:normal;font-variant:normal;font-weight:normal;font-stretch:normal;font-size:5.90727px;line-height:1.25;font-family:'Roboto Condensed';-inkscape-font-specification:'Roboto Condensed, ';letter-spacing:0px;stroke-width:0.23445"
       x="39.596027"
       y="115.50261"
       id="text3755"><tspan
         sodipodi:role="line"
         style="font-style:normal;font-variant:normal;font-weight:normal;font-stretch:normal;font-size:5.90727px;font-family:'Roboto Condensed';-inkscape-font-specification:'Roboto Condensed, ';stroke-width:0.23445"
         x="39.596027"
         y="115.50261"
         id="tspan13141">Target</tspan><tspan
         sodipodi:role="line"
         style="font-style:normal;font-variant:normal;font-weight:normal;font-stretch:normal;font-size:5.90727px;font-family:'Roboto Condensed';-inkscape-font-specification:'Roboto Condensed, ';stroke-width:0.23445"
         x="39.596027"
         y="122.8867"
         id="tspan11760">One </tspan><tspan
         sodipodi:role="line"
         style="font-style:normal;font-variant:normal;font-weight:normal;font-stretch:normal;font-size:5.90727px;font-family:'Roboto Condensed';-inkscape-font-specification:'Roboto Condensed, ';stroke-width:0.23445"
         x="39.596027"
         y="130.27078"
         id="tspan11756">Error</tspan></text>
    <path
       style="fill:none;stroke:#f5c243;stroke-width:0.877966;stroke-linecap:butt;stroke-linejoin:miter;stroke-miterlimit:4;stroke-dasharray:none;stroke-dashoffset:0;stroke-opacity:1"
       d="M 65.837205,81.371901 166.20137,168.27077"
       id="path18426"
       sodipodi:nodetypes="cc" />
    <path
       style="fill:none;stroke:#6fa27e;stroke-width:0.877966;stroke-linecap:butt;stroke-linejoin:miter;stroke-miterlimit:4;stroke-dasharray:none;stroke-dashoffset:0;stroke-opacity:1"
       d="m 66.904595,82.621781 c 0,0 9.79973,51.460689 26.26773,67.029779 19.585055,18.51599 74.096435,19.86909 74.096435,19.86909"
       id="path18698"
       sodipodi:nodetypes="csc" />
    <path
       style="fill:none;stroke:#f84141;stroke-width:0.877966;stroke-linecap:butt;stroke-linejoin:miter;stroke-miterlimit:4;stroke-dasharray:none;stroke-dashoffset:0;stroke-opacity:1"
       d="m 66.904595,82.621781 c 0,0 51.232525,4.579254 69.197065,20.764619 17.96454,16.18536 31.1671,66.13425 31.1671,66.13425"
       id="path18738"
       sodipodi:nodetypes="czc" />
    <path
       style="fill:none;stroke:#646464;stroke-width:0.620794;stroke-linecap:butt;stroke-linejoin:miter;stroke-miterlimit:4;stroke-dasharray:none;stroke-opacity:1"
       d="M 167.1744,169.62908 V 82.730201 H 66.810215"
       id="path25838" />
    <text
       xml:space="preserve"
       style="font-size:5.06336px;line-height:1.25;font-family:Urbanist;-inkscape-font-specification:Urbanist;letter-spacing:0px;stroke-width:0.23445"
       x="66.935852"
       y="175.15578"
       id="text59831"><tspan
         sodipodi:role="line"
         id="tspan59829"
         style="font-style:normal;font-variant:normal;font-weight:normal;font-stretch:normal;font-size:5.06336px;font-family:'Roboto Condensed';-inkscape-font-specification:'Roboto Condensed, ';stroke-width:0.23445"
         x="66.935852"
         y="175.15578">low </tspan></text>
    <text
       xml:space="preserve"
       style="font-size:5.06336px;line-height:1.25;font-family:Urbanist;-inkscape-font-specification:Urbanist;letter-spacing:0px;stroke-width:0.23445"
       x="58.495651"
       y="167.6534"
       id="text61697"><tspan
         sodipodi:role="line"
         id="tspan61695"
         style="font-style:normal;font-variant:normal;font-weight:normal;font-stretch:normal;font-size:5.06336px;font-family:'Roboto Condensed';-inkscape-font-specification:'Roboto Condensed, ';stroke-width:0.23445"
         x="58.495651"
         y="167.6534">low </tspan></text>
    <text
       xml:space="preserve"
       style="font-size:5.06336px;line-height:1.25;font-family:Urbanist;-inkscape-font-specification:Urbanist;letter-spacing:0px;stroke-width:0.23445"
       x="56.999191"
       y="77.470947"
       id="text61701"><tspan
         sodipodi:role="line"
         id="tspan61699"
         style="font-style:normal;font-variant:normal;font-weight:normal;font-stretch:normal;font-size:5.06336px;font-family:'Roboto Condensed';-inkscape-font-specification:'Roboto Condensed, ';stroke-width:0.23445"
         x="56.999191"
         y="77.470947">high</tspan></text>
    <text
       xml:space="preserve"
       style="font-size:5.06336px;line-height:1.25;font-family:Urbanist;-inkscape-font-specification:Urbanist;letter-spacing:0px;stroke-width:0.23445"
       x="164.07166"
       y="175.05229"
       id="text63097"><tspan
         sodipodi:role="line"
         id="tspan63095"
         style="font-style:normal;font-variant:normal;font-weight:normal;font-stretch:normal;font-size:5.06336px;font-family:'Roboto Condensed';-inkscape-font-specification:'Roboto Condensed, ';stroke-width:0.23445"
         x="164.07166"
         y="175.05229">high</tspan></text>
    <path
       style="fill:none;stroke:#000000;stroke-width:0.264583px;stroke-linecap:butt;stroke-linejoin:miter;stroke-opacity:1"
       d="m 67.810015,81.622451 c 0,0 9.453867,-8.288978 15.849717,-8.555788"
       id="path451361"
       sodipodi:nodetypes="cc" />
    <rect
       style="fill:none;fill-opacity:1;stroke:none;stroke-width:0.353223;stroke-linecap:round;stroke-miterlimit:4;stroke-dasharray:none;stroke-dashoffset:0;stroke-opacity:1;paint-order:stroke fill markers"
       id="rect81243"
       width="217.00374"
       height="153.23396"
       x="13.368649"
       y="38.278625"
       ry="3.4188125" />
    <text
       xml:space="preserve"
       style="font-style:normal;font-variant:normal;font-weight:normal;font-stretch:normal;font-size:8.45409px;line-height:1.25;font-family:'Roboto Condensed';-inkscape-font-specification:'Roboto Condensed, ';letter-spacing:0px;fill:#f84141;fill-opacity:1;stroke-width:0.23445"
       x="185.72913"
       y="105.16695"
       id="text85319"><tspan
         sodipodi:role="line"
         style="font-style:normal;font-variant:normal;font-weight:normal;font-stretch:normal;font-size:8.45409px;font-family:'Roboto Condensed';-inkscape-font-specification:'Roboto Condensed, ';fill:#f84141;fill-opacity:1;stroke-width:0.23445"
         x="185.72913"
         y="105.16695"
         id="tspan85615">convex</tspan></text>
    <text
       xml:space="preserve"
       style="font-style:normal;font-variant:normal;font-weight:normal;font-stretch:normal;font-size:8.45409px;line-height:1.25;font-family:'Roboto Condensed';-inkscape-font-specification:'Roboto Condensed, ';letter-spacing:0px;fill:#f5c143;fill-opacity:0.584314;stroke-width:0.23445"
       x="185.72913"
       y="116.69524"
       id="text87613"><tspan
         sodipodi:role="line"
         style="font-style:normal;font-variant:normal;font-weight:normal;font-stretch:normal;font-size:8.45409px;font-family:'Roboto Condensed';-inkscape-font-specification:'Roboto Condensed, ';fill:#f5c143;fill-opacity:0.584314;stroke-width:0.23445"
         x="185.72913"
         y="116.69524"
         id="tspan87611">linear</tspan></text>
    <text
       xml:space="preserve"
       style="font-style:normal;font-variant:normal;font-weight:normal;font-stretch:normal;font-size:8.45409px;line-height:1.25;font-family:'Roboto Condensed';-inkscape-font-specification:'Roboto Condensed, ';letter-spacing:0px;fill:#6fa27e;fill-opacity:1;stroke-width:0.23445"
       x="185.72913"
       y="128.2235"
       id="text87617"><tspan
         sodipodi:role="line"
         style="font-style:normal;font-variant:normal;font-weight:normal;font-stretch:normal;font-size:8.45409px;font-family:'Roboto Condensed';-inkscape-font-specification:'Roboto Condensed, ';fill:#6fa27e;fill-opacity:1;stroke-width:0.23445"
         x="185.72913"
         y="128.2235"
         id="tspan87615">convex</tspan></text>
    <ellipse
       style="fill:#fefdfd;fill-opacity:1;stroke:#616161;stroke-width:0.96637;stroke-opacity:1;paint-order:stroke fill markers"
       id="ellipse450892"
       cx="66.985107"
       cy="82.250618"
       rx="1.2791452"
       ry="1.3605721" />
    <path
       style="fill:none;stroke:#000000;stroke-width:0.215232px;stroke-linecap:butt;stroke-linejoin:miter;stroke-opacity:1"
       d="m 82.765561,72.534257 c 0,0 0.86495,0.14275 0.91254,0.48372 0.0555,0.39733 -0.86843,0.83326 -0.86843,0.83326"
       id="path452127"
       sodipodi:nodetypes="csc" />
    <path
       style="fill:none;stroke:#000000;stroke-width:0.264583px;stroke-linecap:butt;stroke-linejoin:miter;stroke-opacity:1"
       d="m 167.79793,168.99148 c 0,0 9.4347,-4.22458 15.83055,-4.49139"
       id="path452229" />
    <ellipse
       style="fill:#fefdfd;fill-opacity:1;stroke:#616161;stroke-width:0.96637;stroke-opacity:1;paint-order:stroke fill markers"
       id="ellipse452231"
       cx="166.97302"
       cy="169.61964"
       rx="1.2791452"
       ry="1.3605721" />
    <path
       style="fill:none;stroke:#000000;stroke-width:0.215232px;stroke-linecap:butt;stroke-linejoin:miter;stroke-opacity:1"
       d="m 182.68317,163.93274 c 0,0 0.86495,0.14275 0.91254,0.48372 0.0555,0.39733 -0.86843,0.83326 -0.86843,0.83326"
       id="path452233"
       sodipodi:nodetypes="csc" />
    <path
       style="fill:none;stroke:#000000;stroke-width:0.264583px;stroke-linecap:butt;stroke-linejoin:miter;stroke-opacity:1"
       d="m 138.88144,104.55361 c 0,0 -1.92376,-9.675727 2.27495,-9.518814"
       id="path452235"
       sodipodi:nodetypes="cc" />
    <ellipse
       style="fill:#fefdfd;fill-opacity:1;stroke:#616161;stroke-width:0.96637;stroke-opacity:1;paint-order:stroke fill markers"
       id="ellipse452237"
       cx="139.33511"
       cy="105.14915"
       rx="1.2791452"
       ry="1.3605721" />
    <path
       style="fill:none;stroke:#000000;stroke-width:0.215232px;stroke-linecap:butt;stroke-linejoin:miter;stroke-opacity:1"
       d="m 140.28611,94.409715 c 0,0 0.86495,0.14275 0.91254,0.48372 0.0555,0.39733 -0.86843,0.83326 -0.86843,0.83326"
       id="path452239"
       sodipodi:nodetypes="csc" />
    <g
       inkscape:label=""
       transform="translate(86.529865,64.979029)"
       id="g11871">
      <g
         id="surface1"
         transform="matrix(0.352778,0,0,0.352778,-72.4226,-0.350749)">
        <g
           style="fill:#000000;fill-opacity:1"
           id="g41">
          <g
             id="use39"
             transform="translate(204.48,26.819)">
            <path
               style="stroke:none"
               d="m 7.40625,-11.796875 c 0,-0.15625 -0.125,-0.15625 -0.171875,-0.15625 -0.15625,0 -0.171875,0.03125 -0.25,0.328125 L 6.0625,-7.921875 c -0.046875,0.21875 -0.078125,0.25 -0.09375,0.265625 -0.015625,0.03125 -0.125,0.046875 -0.171875,0.046875 -2.8125,0.234375 -4.984375,2.5625 -4.984375,4.71875 0,1.859375 1.421875,3 3.21875,3.09375 -0.140625,0.53125 -0.265625,1.09375 -0.390625,1.625 C 3.390625,2.734375 3.25,3.3125 3.25,3.375 c 0,0.03125 0,0.140625 0.171875,0.140625 0.0625,0 0.125,0 0.15625,-0.078125 C 3.609375,3.40625 3.71875,3 3.78125,2.765625 l 0.640625,-2.5625 c 2.953125,-0.15625 5.1875,-2.5625 5.1875,-4.734375 0,-1.734375 -1.3125,-2.96875 -3.21875,-3.09375 z m -1.125,4.515625 c 1.140625,0.0625 2.28125,0.703125 2.28125,2.390625 0,1.953125 -1.359375,4.53125 -4.046875,4.734375 z m -2.171875,7.140625 c -0.84375,-0.046875 -2.25,-0.5 -2.25,-2.390625 0,-2.171875 1.5625,-4.578125 4.046875,-4.734375 z m 0,0"
               id="path72" />
          </g>
        </g>
        <g
           style="fill:#000000;fill-opacity:1"
           id="g45">
          <g
             id="use43"
             transform="translate(219.23801,26.819)">
            <path
               style="stroke:none"
               d="m 11.078125,-5.53125 c 0.25,0 0.515625,0 0.515625,-0.28125 C 11.59375,-6.125 11.296875,-6.125 11,-6.125 H 1.375 c -0.296875,0 -0.578125,0 -0.578125,0.3125 0,0.28125 0.25,0.28125 0.515625,0.28125 z M 11,-2.46875 c 0.296875,0 0.59375,0 0.59375,-0.296875 0,-0.296875 -0.265625,-0.296875 -0.515625,-0.296875 H 1.3125 c -0.265625,0 -0.515625,0 -0.515625,0.296875 0,0.296875 0.28125,0.296875 0.578125,0.296875 z m 0,0"
               id="path76" />
          </g>
        </g>
        <g
           clip-path="url(#clipPath970)"
           clip-rule="nonzero"
           id="g51">
          <g
             style="fill:#000000;fill-opacity:1"
             id="g49">
            <g
               id="use47"
               transform="translate(236.412,1.7130001)">
              <path
                 style="stroke:none"
                 d="m 4.484375,42.3125 h 4.71875 V 41.328125 H 5.46875 V 0.265625 H 9.203125 V -0.71875 h -4.71875 z m 0,0"
                 id="path80" />
            </g>
          </g>
        </g>
        <g
           style="fill:#000000;fill-opacity:1"
           id="g55">
          <g
             id="use53"
             transform="translate(245.877,16.059999)">
            <path
               style="stroke:none"
               d="m 4.578125,-11 c 0,-0.359375 -0.015625,-0.375 -0.25,-0.375 -0.671875,0.796875 -1.6875,1.0625 -2.65625,1.09375 -0.046875,0 -0.140625,0 -0.15625,0.03125 C 1.5,-10.203125 1.5,-10.171875 1.5,-9.8125 c 0.53125,0 1.421875,-0.109375 2.109375,-0.515625 V -1.25 c 0,0.59375 -0.03125,0.796875 -1.515625,0.796875 H 1.578125 V 0 c 0.828125,-0.015625 1.6875,-0.03125 2.515625,-0.03125 0.828125,0 1.6875,0.015625 2.515625,0.03125 V -0.453125 H 6.09375 c -1.484375,0 -1.515625,-0.1875 -1.515625,-0.796875 z m 0,0"
               id="path84" />
          </g>
        </g>
        <g
           style="fill:#000000;fill-opacity:1"
           id="g59">
          <g
             id="use57"
             transform="translate(245.877,37.578999)">
            <path
               style="stroke:none"
               d="m 7.234375,-5.53125 c 0,-1.046875 -0.015625,-2.84375 -0.75,-4.21875 -0.625,-1.203125 -1.640625,-1.625 -2.546875,-1.625 -0.828125,0 -1.875,0.375 -2.53125,1.609375 -0.6875,1.296875 -0.75,2.890625 -0.75,4.234375 0,0.984375 0.015625,2.484375 0.546875,3.796875 0.75,1.765625 2.0625,2.015625 2.734375,2.015625 0.796875,0 2,-0.328125 2.703125,-1.96875 0.515625,-1.1875 0.59375,-2.578125 0.59375,-3.84375 z M 3.9375,0 C 2.84375,0 2.1875,-0.953125 1.953125,-2.25 1.75,-3.265625 1.75,-4.75 1.75,-5.71875 c 0,-1.328125 0,-2.421875 0.234375,-3.46875 0.328125,-1.46875 1.28125,-1.921875 1.953125,-1.921875 0.71875,0 1.625,0.46875 1.953125,1.875 C 6.109375,-8.25 6.125,-7.09375 6.125,-5.71875 c 0,1.125 0,2.5 -0.203125,3.515625 C 5.5625,-0.328125 4.546875,0 3.9375,0 Z m 0,0"
               id="path88" />
          </g>
        </g>
        <g
           clip-path="url(#clipPath2748)"
           clip-rule="nonzero"
           id="g65">
          <g
             style="fill:#000000;fill-opacity:1"
             id="g63">
            <g
               id="use61"
               transform="translate(253.772,1.7130001)">
              <path
                 style="stroke:none"
                 d="M 3.984375,41.328125 H 0.25 V 42.3125 H 4.96875 V -0.71875 H 0.25 v 0.984375 h 3.734375 z m 0,0"
                 id="path92" />
            </g>
          </g>
        </g>
      </g>
    </g>
    <g
       inkscape:label=""
       transform="translate(187.35516,156.71103)"
       id="g12083">
      <g
         id="g12081"
         transform="matrix(0.352778,0,0,0.352778,-72.4226,-0.350749)">
        <g
           style="fill:#000000;fill-opacity:1"
           id="g12045">
          <g
             id="g12043"
             transform="translate(204.48,26.819)">
            <path
               style="stroke:none"
               d="m 7.40625,-11.796875 c 0,-0.15625 -0.125,-0.15625 -0.171875,-0.15625 -0.15625,0 -0.171875,0.03125 -0.25,0.328125 L 6.0625,-7.921875 c -0.046875,0.21875 -0.078125,0.25 -0.09375,0.265625 -0.015625,0.03125 -0.125,0.046875 -0.171875,0.046875 -2.8125,0.234375 -4.984375,2.5625 -4.984375,4.71875 0,1.859375 1.421875,3 3.21875,3.09375 -0.140625,0.53125 -0.265625,1.09375 -0.390625,1.625 C 3.390625,2.734375 3.25,3.3125 3.25,3.375 c 0,0.03125 0,0.140625 0.171875,0.140625 0.0625,0 0.125,0 0.15625,-0.078125 C 3.609375,3.40625 3.71875,3 3.78125,2.765625 l 0.640625,-2.5625 c 2.953125,-0.15625 5.1875,-2.5625 5.1875,-4.734375 0,-1.734375 -1.3125,-2.96875 -3.21875,-3.09375 z m -1.125,4.515625 c 1.140625,0.0625 2.28125,0.703125 2.28125,2.390625 0,1.953125 -1.359375,4.53125 -4.046875,4.734375 z m -2.171875,7.140625 c -0.84375,-0.046875 -2.25,-0.5 -2.25,-2.390625 0,-2.171875 1.5625,-4.578125 4.046875,-4.734375 z m 0,0"
               id="path12041" />
          </g>
        </g>
        <g
           style="fill:#000000;fill-opacity:1"
           id="g12051">
          <g
             id="g12049"
             transform="translate(219.23801,26.819)">
            <path
               style="stroke:none"
               d="m 11.078125,-5.53125 c 0.25,0 0.515625,0 0.515625,-0.28125 C 11.59375,-6.125 11.296875,-6.125 11,-6.125 H 1.375 c -0.296875,0 -0.578125,0 -0.578125,0.3125 0,0.28125 0.25,0.28125 0.515625,0.28125 z M 11,-2.46875 c 0.296875,0 0.59375,0 0.59375,-0.296875 0,-0.296875 -0.265625,-0.296875 -0.515625,-0.296875 H 1.3125 c -0.265625,0 -0.515625,0 -0.515625,0.296875 0,0.296875 0.28125,0.296875 0.578125,0.296875 z m 0,0"
               id="path12047" />
          </g>
        </g>
        <g
           clip-path="url(#clipPath6535)"
           clip-rule="nonzero"
           id="g12059">
          <g
             style="fill:#000000;fill-opacity:1"
             id="g12057">
            <g
               id="g12055"
               transform="translate(236.412,1.7130001)">
              <path
                 style="stroke:none"
                 d="m 4.484375,42.3125 h 4.71875 V 41.328125 H 5.46875 V 0.265625 H 9.203125 V -0.71875 h -4.71875 z m 0,0"
                 id="path12053" />
            </g>
          </g>
        </g>
        <g
           style="fill:#000000;fill-opacity:1"
           id="g12065">
          <g
             id="g12063"
             transform="translate(245.877,16.059999)">
            <path
               style="stroke:none"
               d="m 7.234375,-5.53125 c 0,-1.046875 -0.015625,-2.84375 -0.75,-4.21875 -0.625,-1.203125 -1.640625,-1.625 -2.546875,-1.625 -0.828125,0 -1.875,0.375 -2.53125,1.609375 -0.6875,1.296875 -0.75,2.890625 -0.75,4.234375 0,0.984375 0.015625,2.484375 0.546875,3.796875 0.75,1.765625 2.0625,2.015625 2.734375,2.015625 0.796875,0 2,-0.328125 2.703125,-1.96875 0.515625,-1.1875 0.59375,-2.578125 0.59375,-3.84375 z M 3.9375,0 C 2.84375,0 2.1875,-0.953125 1.953125,-2.25 1.75,-3.265625 1.75,-4.75 1.75,-5.71875 c 0,-1.328125 0,-2.421875 0.234375,-3.46875 0.328125,-1.46875 1.28125,-1.921875 1.953125,-1.921875 0.71875,0 1.625,0.46875 1.953125,1.875 C 6.109375,-8.25 6.125,-7.09375 6.125,-5.71875 c 0,1.125 0,2.5 -0.203125,3.515625 C 5.5625,-0.328125 4.546875,0 3.9375,0 Z m 0,0"
               id="path12061" />
          </g>
        </g>
        <g
           style="fill:#000000;fill-opacity:1"
           id="g12071">
          <g
             id="g12069"
             transform="translate(245.877,37.578999)">
            <path
               style="stroke:none"
               d="m 4.578125,-11 c 0,-0.359375 -0.015625,-0.375 -0.25,-0.375 -0.671875,0.796875 -1.6875,1.0625 -2.65625,1.09375 -0.046875,0 -0.140625,0 -0.15625,0.03125 C 1.5,-10.203125 1.5,-10.171875 1.5,-9.8125 c 0.53125,0 1.421875,-0.109375 2.109375,-0.515625 V -1.25 c 0,0.59375 -0.03125,0.796875 -1.515625,0.796875 H 1.578125 V 0 c 0.828125,-0.015625 1.6875,-0.03125 2.515625,-0.03125 0.828125,0 1.6875,0.015625 2.515625,0.03125 V -0.453125 H 6.09375 c -1.484375,0 -1.515625,-0.1875 -1.515625,-0.796875 z m 0,0"
               id="path12067" />
          </g>
        </g>
        <g
           clip-path="url(#clipPath4575)"
           clip-rule="nonzero"
           id="g12079">
          <g
             style="fill:#000000;fill-opacity:1"
             id="g12077">
            <g
               id="g12075"
               transform="translate(253.772,1.7130001)">
              <path
                 style="stroke:none"
                 d="M 3.984375,41.328125 H 0.25 V 42.3125 H 4.96875 V -0.71875 H 0.25 v 0.984375 h 3.734375 z m 0,0"
                 id="path12073" />
            </g>
          </g>
        </g>
      </g>
    </g>
    <g
       inkscape:label=""
       transform="translate(142.66522,86.436523)"
       id="g12339">
      <g
         id="g12337"
         transform="matrix(0.352778,0,0,0.352778,-70.204,-0.350749)">
        <g
           style="fill:#000000;fill-opacity:1"
           id="g44">
          <g
             id="use42"
             transform="translate(198.19099,26.819)">
            <path
               style="stroke:none"
               d="m 7.40625,-11.796875 c 0,-0.15625 -0.125,-0.15625 -0.171875,-0.15625 -0.15625,0 -0.171875,0.03125 -0.25,0.328125 L 6.0625,-7.921875 c -0.046875,0.21875 -0.078125,0.25 -0.09375,0.265625 -0.015625,0.03125 -0.125,0.046875 -0.171875,0.046875 -2.8125,0.234375 -4.984375,2.5625 -4.984375,4.71875 0,1.859375 1.421875,3 3.21875,3.09375 -0.140625,0.53125 -0.265625,1.09375 -0.390625,1.625 C 3.390625,2.734375 3.25,3.3125 3.25,3.375 c 0,0.03125 0,0.140625 0.171875,0.140625 0.0625,0 0.125,0 0.15625,-0.078125 C 3.609375,3.40625 3.71875,3 3.78125,2.765625 l 0.640625,-2.5625 c 2.953125,-0.15625 5.1875,-2.5625 5.1875,-4.734375 0,-1.734375 -1.3125,-2.96875 -3.21875,-3.09375 z m -1.125,4.515625 c 1.140625,0.0625 2.28125,0.703125 2.28125,2.390625 0,1.953125 -1.359375,4.53125 -4.046875,4.734375 z m -2.171875,7.140625 c -0.84375,-0.046875 -2.25,-0.5 -2.25,-2.390625 0,-2.171875 1.5625,-4.578125 4.046875,-4.734375 z m 0,0"
               id="path91" />
          </g>
        </g>
        <g
           style="fill:#000000;fill-opacity:1"
           id="g48">
          <g
             id="use46"
             transform="translate(212.94901,26.819)">
            <path
               style="stroke:none"
               d="m 11.078125,-5.53125 c 0.25,0 0.515625,0 0.515625,-0.28125 C 11.59375,-6.125 11.296875,-6.125 11,-6.125 H 1.375 c -0.296875,0 -0.578125,0 -0.578125,0.3125 0,0.28125 0.25,0.28125 0.515625,0.28125 z M 11,-2.46875 c 0.296875,0 0.59375,0 0.59375,-0.296875 0,-0.296875 -0.265625,-0.296875 -0.515625,-0.296875 H 1.3125 c -0.265625,0 -0.515625,0 -0.515625,0.296875 0,0.296875 0.28125,0.296875 0.578125,0.296875 z m 0,0"
               id="path95" />
          </g>
        </g>
        <g
           clip-path="url(#clipPath7160)"
           clip-rule="nonzero"
           id="g54">
          <g
             style="fill:#000000;fill-opacity:1"
             id="g52">
            <g
               id="use50"
               transform="translate(230.12399,1.7130001)">
              <path
                 style="stroke:none"
                 d="m 4.484375,42.3125 h 4.71875 V 41.328125 H 5.46875 V 0.265625 H 9.203125 V -0.71875 h -4.71875 z m 0,0"
                 id="path99" />
            </g>
          </g>
        </g>
        <g
           style="fill:#000000;fill-opacity:1"
           id="g58">
          <g
             id="use56"
             transform="translate(239.588,16.059999)">
            <path
               style="stroke:none"
               d="m 7.234375,-5.53125 c 0,-1.046875 -0.015625,-2.84375 -0.75,-4.21875 -0.625,-1.203125 -1.640625,-1.625 -2.546875,-1.625 -0.828125,0 -1.875,0.375 -2.53125,1.609375 -0.6875,1.296875 -0.75,2.890625 -0.75,4.234375 0,0.984375 0.015625,2.484375 0.546875,3.796875 0.75,1.765625 2.0625,2.015625 2.734375,2.015625 0.796875,0 2,-0.328125 2.703125,-1.96875 0.515625,-1.1875 0.59375,-2.578125 0.59375,-3.84375 z M 3.9375,0 C 2.84375,0 2.1875,-0.953125 1.953125,-2.25 1.75,-3.265625 1.75,-4.75 1.75,-5.71875 c 0,-1.328125 0,-2.421875 0.234375,-3.46875 0.328125,-1.46875 1.28125,-1.921875 1.953125,-1.921875 0.71875,0 1.625,0.46875 1.953125,1.875 C 6.109375,-8.25 6.125,-7.09375 6.125,-5.71875 c 0,1.125 0,2.5 -0.203125,3.515625 C 5.5625,-0.328125 4.546875,0 3.9375,0 Z m 0,0"
               id="path103" />
          </g>
        </g>
        <g
           style="fill:#000000;fill-opacity:1"
           id="g62">
          <g
             id="use60"
             transform="translate(247.48399,16.059999)">
            <path
               style="stroke:none"
               d="m 3.171875,-0.828125 c 0,-0.5 -0.421875,-0.84375 -0.828125,-0.84375 C 1.84375,-1.671875 1.5,-1.25 1.5,-0.84375 1.5,-0.34375 1.90625,0 2.328125,0 c 0.5,0 0.84375,-0.40625 0.84375,-0.828125 z m 0,0"
               id="path107" />
          </g>
        </g>
        <g
           style="fill:#000000;fill-opacity:1"
           id="g66">
          <g
             id="use64"
             transform="translate(252.166,16.059999)">
            <path
               style="stroke:none"
               d="M 1.96875,-10.078125 C 2.140625,-10 2.84375,-9.78125 3.5625,-9.78125 c 1.609375,0 2.484375,-0.859375 2.984375,-1.359375 0,-0.140625 0,-0.21875 -0.109375,-0.21875 -0.015625,0 -0.046875,0 -0.1875,0.0625 -0.609375,0.265625 -1.3125,0.46875 -2.171875,0.46875 -0.515625,0 -1.28125,-0.07813 -2.125,-0.453125 -0.203125,-0.07813 -0.234375,-0.07813 -0.25,-0.07813 -0.078125,0 -0.109375,0.01563 -0.109375,0.359375 v 4.984375 c 0,0.3125 0,0.40625 0.1875,0.40625 0.078125,0 0.109375,-0.03125 0.203125,-0.15625 C 2.53125,-6.546875 3.28125,-6.875 4.15625,-6.875 c 0.59375,0 1.890625,0.390625 1.890625,3.328125 0,0.546875 0,1.546875 -0.515625,2.34375 -0.4375,0.703125 -1.109375,1.0625 -1.84375,1.0625 -1.140625,0 -2.296875,-0.796875 -2.609375,-2.109375 0.078125,0.015625 0.21875,0.046875 0.28125,0.046875 0.21875,0 0.65625,-0.125 0.65625,-0.65625 0,-0.46875 -0.328125,-0.65625 -0.65625,-0.65625 -0.390625,0 -0.65625,0.25 -0.65625,0.71875 0,1.5 1.1875,3.078125 3.015625,3.078125 1.78125,0 3.46875,-1.53125 3.46875,-3.765625 0,-2.0625 -1.34375,-3.65625 -3.015625,-3.65625 -0.890625,0 -1.625,0.328125 -2.203125,0.9375 z m 0,0"
               id="path111" />
          </g>
        </g>
        <g
           style="fill:#000000;fill-opacity:1"
           id="g70">
          <g
             id="use68"
             transform="translate(239.588,37.578999)">
            <path
               style="stroke:none"
               d="m 7.234375,-5.53125 c 0,-1.046875 -0.015625,-2.84375 -0.75,-4.21875 -0.625,-1.203125 -1.640625,-1.625 -2.546875,-1.625 -0.828125,0 -1.875,0.375 -2.53125,1.609375 -0.6875,1.296875 -0.75,2.890625 -0.75,4.234375 0,0.984375 0.015625,2.484375 0.546875,3.796875 0.75,1.765625 2.0625,2.015625 2.734375,2.015625 0.796875,0 2,-0.328125 2.703125,-1.96875 0.515625,-1.1875 0.59375,-2.578125 0.59375,-3.84375 z M 3.9375,0 C 2.84375,0 2.1875,-0.953125 1.953125,-2.25 1.75,-3.265625 1.75,-4.75 1.75,-5.71875 c 0,-1.328125 0,-2.421875 0.234375,-3.46875 0.328125,-1.46875 1.28125,-1.921875 1.953125,-1.921875 0.71875,0 1.625,0.46875 1.953125,1.875 C 6.109375,-8.25 6.125,-7.09375 6.125,-5.71875 c 0,1.125 0,2.5 -0.203125,3.515625 C 5.5625,-0.328125 4.546875,0 3.9375,0 Z m 0,0"
               id="path115" />
          </g>
        </g>
        <g
           style="fill:#000000;fill-opacity:1"
           id="g74">
          <g
             id="use72"
             transform="translate(247.48399,37.578999)">
            <path
               style="stroke:none"
               d="m 3.171875,-0.828125 c 0,-0.5 -0.421875,-0.84375 -0.828125,-0.84375 C 1.84375,-1.671875 1.5,-1.25 1.5,-0.84375 1.5,-0.34375 1.90625,0 2.328125,0 c 0.5,0 0.84375,-0.40625 0.84375,-0.828125 z m 0,0"
               id="path119" />
          </g>
        </g>
        <g
           style="fill:#000000;fill-opacity:1"
           id="g78">
          <g
             id="use76"
             transform="translate(252.166,37.578999)">
            <path
               style="stroke:none"
               d="M 1.96875,-10.078125 C 2.140625,-10 2.84375,-9.78125 3.5625,-9.78125 c 1.609375,0 2.484375,-0.859375 2.984375,-1.359375 0,-0.140625 0,-0.21875 -0.109375,-0.21875 -0.015625,0 -0.046875,0 -0.1875,0.0625 -0.609375,0.265625 -1.3125,0.46875 -2.171875,0.46875 -0.515625,0 -1.28125,-0.07813 -2.125,-0.453125 -0.203125,-0.07813 -0.234375,-0.07813 -0.25,-0.07813 -0.078125,0 -0.109375,0.01563 -0.109375,0.359375 v 4.984375 c 0,0.3125 0,0.40625 0.1875,0.40625 0.078125,0 0.109375,-0.03125 0.203125,-0.15625 C 2.53125,-6.546875 3.28125,-6.875 4.15625,-6.875 c 0.59375,0 1.890625,0.390625 1.890625,3.328125 0,0.546875 0,1.546875 -0.515625,2.34375 -0.4375,0.703125 -1.109375,1.0625 -1.84375,1.0625 -1.140625,0 -2.296875,-0.796875 -2.609375,-2.109375 0.078125,0.015625 0.21875,0.046875 0.28125,0.046875 0.21875,0 0.65625,-0.125 0.65625,-0.65625 0,-0.46875 -0.328125,-0.65625 -0.65625,-0.65625 -0.390625,0 -0.65625,0.25 -0.65625,0.71875 0,1.5 1.1875,3.078125 3.015625,3.078125 1.78125,0 3.46875,-1.53125 3.46875,-3.765625 0,-2.0625 -1.34375,-3.65625 -3.015625,-3.65625 -0.890625,0 -1.625,0.328125 -2.203125,0.9375 z m 0,0"
               id="path123" />
          </g>
        </g>
        <g
           clip-path="url(#clipPath9988)"
           clip-rule="nonzero"
           id="g84">
          <g
             style="fill:#000000;fill-opacity:1"
             id="g82">
            <g
               id="use80"
               transform="translate(260.061,1.7130001)">
              <path
                 style="stroke:none"
                 d="M 3.984375,41.328125 H 0.25 V 42.3125 H 4.96875 V -0.71875 H 0.25 v 0.984375 h 3.734375 z m 0,0"
                 id="path127" />
            </g>
          </g>
        </g>
      </g>
    </g>
  </g>
</svg>
